<?xml version="1.0" standalone="no"?>
<!DOCTYPE svg PUBLIC "-//W3C//DTD SVG 20010904//EN"
 "http://www.w3.org/TR/2001/REC-SVG-20010904/DTD/svg10.dtd">
<svg version="1.0" xmlns="http://www.w3.org/2000/svg"
 width="700.000000pt" height="700.000000pt" viewBox="0 0 700.000000 700.000000"
 preserveAspectRatio="xMidYMid meet">
<metadata>
Created by potrace 1.14, written by Peter Selinger 2001-2017
</metadata>
<g transform="translate(0.000000,700.000000) scale(0.100000,-0.100000)"
fill="#000000" stroke="none">
<path d="M3473 6123 c-11 -15 -116 -176 -233 -358 -118 -181 -241 -373 -275
-425 -34 -52 -207 -320 -385 -595 -178 -275 -355 -549 -395 -610 -39 -60 -143
-220 -230 -355 -180 -279 -245 -380 -414 -640 -66 -102 -161 -250 -213 -330
-51 -80 -96 -149 -100 -155 -5 -5 -25 -37 -47 -70 -21 -33 -72 -112 -113 -175
-649 -1003 -798 -1234 -798 -1240 0 -3 1448 -5 3218 -5 2088 1 3217 4 3217 11
0 5 -40 72 -90 149 -49 76 -188 290 -307 475 -119 184 -259 400 -311 480 -51
80 -114 177 -139 215 -90 140 -183 283 -275 423 -51 78 -93 147 -93 152 0 6
-4 10 -10 10 -5 0 -10 4 -10 9 0 4 -26 48 -59 97 -32 49 -134 206 -226 349
-92 143 -200 310 -239 370 -40 61 -95 146 -124 190 -28 44 -164 253 -301 465
-233 359 -355 548 -391 606 -15 24 -311 481 -495 764 -55 85 -110 170 -121
188 l-21 34 -20 -29z m63 -746 c22 -34 61 -93 86 -132 25 -38 74 -115 110
-170 36 -55 195 -300 353 -545 159 -245 309 -476 334 -515 25 -38 50 -78 56
-88 10 -17 248 -386 485 -749 142 -219 237 -366 312 -483 32 -49 63 -97 68
-105 36 -54 443 -683 587 -907 l82 -128 -1259 -3 c-693 -1 -1827 -1 -2520 0
l-1259 3 146 225 c154 238 299 461 504 777 68 106 223 346 344 533 121 187
296 458 390 602 93 145 207 322 254 393 271 417 849 1313 860 1333 6 12 15 22
19 22 4 0 25 -28 48 -63z"/>
</g>
</svg>
